<svg xmlns="http://www.w3.org/2000/svg" viewBox="0 0 163.39 187.13">
  <defs>
    <style>
      .a {
        fill: #133ff9;
      }

      .b {
        fill: #1036b2;
      }

      .c {
        fill: #afbdff;
      }

      .d {
        fill: #879ff9;
      }

      .e {
        opacity: 0.85;
      }

      .f, .g {
        fill: none;
        stroke: #133ff9;
        stroke-linejoin: round;
        stroke-width: 2px;
      }

      .g {
        stroke-dasharray: 5.97 3.98;
      }
    </style>
  </defs>
  <title>emptyExclamation</title>
  <g>
    <g>
      <polygon class="a" points="18.83 83.76 18.83 169.76 82.83 186.76 82.83 102.76 18.83 83.76"/>
      <path class="b" d="M491.94,333.53V416a20.08,20.08,0,0,0,0,3.38.75.75,0,0,1,0,.15.38.38,0,0,0,.28.36l21.67,5.76,34.41,9.14,7.92,2.1a.37.37,0,0,0,.47-.36v-84a.39.39,0,0,0-.27-.36l-21.75-6.46-34.36-10.2-7.89-2.34a.37.37,0,0,0-.2.72L514,340.35l34.35,10.2,7.9,2.34-.28-.36v84l.48-.36-21.68-5.76-34.4-9.14-7.92-2.1.27.36V337.06a20.08,20.08,0,0,0,0-3.38.75.75,0,0,1,0-.15A.38.38,0,0,0,491.94,333.53Z" transform="translate(-473.49 -249.77)"/>
    </g>
    <g>
      <polygon class="a" points="146.83 83.76 146.83 169.76 82.83 186.76 82.83 102.76 146.83 83.76"/>
      <path class="b" d="M619.94,333.53V418.2a3.59,3.59,0,0,0,0,1.18s0,.11,0,.15l.28-.36-21.68,5.76-34.4,9.14-7.92,2.1.47.36v-84l-.27.36,21.74-6.45,34.36-10.2,7.9-2.35a.37.37,0,0,0-.2-.72l-21.75,6.46-34.36,10.2-7.89,2.34a.38.38,0,0,0-.28.36v84a.37.37,0,0,0,.48.36l21.67-5.75L612.5,422l7.92-2.11a.38.38,0,0,0,.27-.36V337.06a20.08,20.08,0,0,0,0-3.38.75.75,0,0,1,0-.15A.38.38,0,0,0,619.94,333.53Z" transform="translate(-473.49 -249.77)"/>
    </g>
    <g>
      <polygon class="c" points="82.83 67.93 18.83 83.76 82.83 102.76 146.83 83.76 82.83 67.93"/>
      <path class="d" d="M556.22,317.34l-21.74,5.38-34.35,8.49-7.91,2a.37.37,0,0,0,0,.72L514,340.35l34.52,10.25,5.19,1.54a14.33,14.33,0,0,0,2.45.73,3.4,3.4,0,0,0,1.24-.26l3.94-1.17,32.94-9.78c8.58-2.55,17.2-5,25.75-7.64l.42-.13a.38.38,0,0,0,0-.72l-21.74-5.38-34.35-8.5-7.91-2a.37.37,0,0,0-.2.72L578,323.44l34.35,8.5,7.91,1.95v-.72l-21.64,6.42-34.47,10.24c-2.56.76-5.16,1.77-7.78,2.31-.29.06.27.06,0,0s-.6-.18-.9-.26l-4-1.19-32.92-9.78L501.93,336,496,334.25a22.36,22.36,0,0,0-3.21-1,2.12,2.12,0,0,1-.41-.12v.72l21.74-5.37,34.35-8.5,7.91-2A.37.37,0,0,0,556.22,317.34Z" transform="translate(-473.49 -249.77)"/>
    </g>
    <g>
      <polygon class="c" points="18.83 83.76 0.38 100.58 62.18 117.27 82.83 102.76 18.83 83.76"/>
      <path class="d" d="M492.05,333.27,475.89,348l-2.29,2.08a.38.38,0,0,0,.16.63l11.38,3.07,24,6.47L530.33,366c1.64.44,3.27,1,4.93,1.33,1.08.24,2.34-1.17,3.17-1.76l17.65-12.4.43-.3a.39.39,0,0,0-.09-.69l-21.75-6.46-34.36-10.2-7.89-2.34a.37.37,0,0,0-.2.72L514,340.35l34.35,10.2,7.9,2.34-.09-.68-15.86,11.14L536.56,366a4.21,4.21,0,0,0-.91.63c-.2.25-.06,0,.08.07-1.26-.25-2.51-.68-3.74-1l-20.07-5.42-24.2-6.53-9-2.43-3-.8a5.92,5.92,0,0,0-1.57-.43c-.06,0-.15,0-.21-.05l.17.62,16.16-14.74,2.29-2.08C492.94,333.47,492.41,332.94,492.05,333.27Z" transform="translate(-473.49 -249.77)"/>
    </g>
    <g>
      <polygon class="c" points="62.42 53.82 82.83 67.93 18.83 83.76 2.02 69.8 62.42 53.82"/>
      <path class="d" d="M535.72,303.91l17.85,12.34,2.56,1.77.09-.68L545.48,320,522.4,325.7l-22.19,5.49-6.5,1.61c-.31.08-1.13.12-1.36.34s.07-.1.2.1a3.13,3.13,0,0,0-.69-.57l-15.63-13-.46-.38-.16.62,20.45-5.41,32.46-8.59,7.49-2a.37.37,0,0,0-.2-.72l-20.45,5.41-32.47,8.59-7.48,2a.38.38,0,0,0-.17.63l14.86,12.34c.82.68,1.65,1.87,2.77,1.6l5.05-1.25L519,327.32l24-5.93,8.85-2.19a31.08,31.08,0,0,0,4.4-1.09,1.29,1.29,0,0,1,.21-.05.38.38,0,0,0,.09-.69L538.66,305l-2.56-1.77C535.7,303,535.32,303.64,535.72,303.91Z" transform="translate(-473.49 -249.77)"/>
    </g>
    <g>
      <polygon class="c" points="100.49 54.99 82.83 67.93 146.83 83.76 163 71.21 100.49 54.99"/>
      <path class="d" d="M573.79,304.44l-15.41,11.29-2.25,1.64a.38.38,0,0,0,.09.69l10.55,2.61,22.9,5.67,22.13,5.47,6.68,1.65c.76.19,1.61.64,2.3.18,2.57-1.72,5-3.84,7.4-5.74l8.07-6.26.51-.39a.38.38,0,0,0-.17-.63l-21.15-5.49-33.67-8.73-7.69-2a.38.38,0,0,0-.2.73L595,310.61l33.68,8.74,7.68,2-.16-.62-14.81,11.49a11.26,11.26,0,0,0-1.09.84c-.39.38-.18,0,.06.11a5.3,5.3,0,0,0-1-.24l-5.77-1.43-21.1-5.22-23.36-5.78-8.41-2.08-2.69-.66a5.12,5.12,0,0,0-1.47-.37.58.58,0,0,1-.18,0l.09.68,15.41-11.28,2.25-1.65C574.55,304.81,574.18,304.16,573.79,304.44Z" transform="translate(-473.49 -249.77)"/>
    </g>
    <g>
      <polygon class="c" points="163 98.47 146.83 83.76 82.83 102.76 101.43 117.27 163 98.47"/>
      <path class="d" d="M636.76,348l-14.43-13.12a9.09,9.09,0,0,0-1.75-1.59c-.33-.16-.53,0-.87.05l-5.16,1.53-21.09,6.26-23.88,7.09-8.8,2.61a34.82,34.82,0,0,0-4.37,1.3,1.39,1.39,0,0,1-.19.06.38.38,0,0,0-.17.63l15.32,11.95,2.91,2.27c.31.24.47.39.86.35a22.94,22.94,0,0,0,4.11-1.26l20-6.11,23.82-7.28L632,350a45.07,45.07,0,0,0,4.42-1.35l.2-.07a.37.37,0,0,0-.2-.72l-10.76,3.29-23,7-21.31,6.51-5.67,1.73c-.12,0-1.09.28-.65.3s-.06-.14-.25-.29l-1.21-.94L557,352.61l-.44-.34-.16.62,10.68-3.17,23-6.82,22.18-6.59,6.57-1.95a4.69,4.69,0,0,0,1.42-.42c.25-.23,0,.27-.19-.13a2.72,2.72,0,0,0,.56.51l15.16,13.79.44.4C636.58,348.83,637.12,348.3,636.76,348Z" transform="translate(-473.49 -249.77)"/>
    </g>
    <circle class="c" cx="101.53" cy="146.62" r="4.73"/>
    <circle class="c" cx="133.6" cy="140.02" r="4.73"/>
    <path class="c" d="M586.87,414.16c.32-3.53,1.88-6.74,5-8.29a8,8,0,0,1,7.63.49,7.28,7.28,0,0,1,2.93,3.52,1.51,1.51,0,0,0,2.05.54,1.56,1.56,0,0,0,.54-2.06,10.58,10.58,0,0,0-8.58-6.14,10.82,10.82,0,0,0-9.95,4.35,14.82,14.82,0,0,0-2.59,7.59c-.18,1.92,2.82,1.91,3,0Z" transform="translate(-473.49 -249.77)"/>
  </g>
  <g class="e">
    <g>
      <path class="f" d="M551.87,327.71c-.43-.9-.83-1.82-1.17-2.76" transform="translate(-473.49 -249.77)"/>
      <path class="g" d="M549.54,321.14A34.37,34.37,0,0,1,555,293.27c1.86-2.54,4.23-4.91,7.27-5.69s6.79.55,7.8,3.53a7.48,7.48,0,0,1-3.21,8c-2.48,1.29-5.54.06-8.13-1-6.76-2.75-10.15-9.93-14.84-15.67" transform="translate(-473.49 -249.77)"/>
      <path class="f" d="M542.58,280.94a26.48,26.48,0,0,0-2.14-2.1" transform="translate(-473.49 -249.77)"/>
    </g>
  </g>
  <g class="e">
    <path class="a" d="M526.86,261c-1,3.32,1,7,3.31,9.23a20.92,20.92,0,0,0,5.67,3.65c.46.21,1.18,0,1.12-.65a15,15,0,0,0-6-10.88,21.66,21.66,0,0,0-8.48-3.71,17.52,17.52,0,0,0-2-.33c-1-.09-1,1.41,0,1.5.14,0,.41.05.23,0,.34,0,.68.11,1,.18a23.25,23.25,0,0,1,3.39.92,16.25,16.25,0,0,1,8,5.63,13.44,13.44,0,0,1,2.37,6.67l1.13-.65c-3.31-1.51-6.88-3.81-8.07-7.46a7.35,7.35,0,0,1-.37-2.75,2.91,2.91,0,0,1,.15-1c.29-.92-1.15-1.32-1.44-.4Z" transform="translate(-473.49 -249.77)"/>
    <path class="a" d="M535.82,272.41c2.52.76,6.12,1.53,8.55.18,1.89-1,2-3.53,1.4-5.38a11,11,0,0,0-2.6-4.25l.2.73c.5-3.38-.51-7.27-3.36-9.35a8.38,8.38,0,0,0-7.73-1.19,6.82,6.82,0,0,0-3.61,4.58,13.05,13.05,0,0,0-.53,4.07c0,1,1.54,1,1.5,0a10.29,10.29,0,0,1,1.14-5.29c1.79-3.19,6.24-2.82,8.75-.65,2,1.74,2.61,4.58,2.42,7.13,0,.12,0,.25,0,.37,0-.15-.08-.05,0,.23a3.48,3.48,0,0,0,.82,1.14c1.16,1.48,2.55,4,1.6,5.85-.75,1.49-3.28,1.23-4.63,1.09a18.83,18.83,0,0,1-3.48-.7.75.75,0,0,0-.4,1.44Z" transform="translate(-473.49 -249.77)"/>
    <path class="a" d="M529.86,258.82a12.69,12.69,0,0,1,0-.27c0-.23,0,.16,0-.08,0-.43-.09-.85-.12-1.28a17,17,0,0,1,0-1.75,9.58,9.58,0,0,1,.16-1.68,4.4,4.4,0,0,1,.48-1.46l.19-.29c-.08.11.1-.11.14-.14a1.5,1.5,0,0,1,.59-.37,3.34,3.34,0,0,1,.84-.23,1.55,1.55,0,0,1,.76.07l.2.07s-.11-.06,0,0a1.77,1.77,0,0,1,.33.19.71.71,0,0,1,.14.1l.06,0,.28.28.13.15c.14.16-.08-.12,0,.05l.21.3c.12.2.24.41.34.62l0,.1a355586579537.5,355586579537.5,0,0,0,.14.36.75.75,0,0,0,1.44-.39,6,6,0,0,0-1.07-2,3.62,3.62,0,0,0-3.55-1.4,3.76,3.76,0,0,0-3,2.69,11.72,11.72,0,0,0-.41,4,19.8,19.8,0,0,0,.26,2.66.75.75,0,0,0,.92.52.78.78,0,0,0,.53-.92Z" transform="translate(-473.49 -249.77)"/>
  </g>
</svg>
