<svg xmlns="http://www.w3.org/2000/svg" viewBox="0 0 163.39 133.71">
  <defs>
    <style>
      .a {
        fill: #133ff9;
      }

      .b {
        fill: #1036b2;
      }

      .c {
        fill: #afbdff;
      }

      .d {
        fill: #879ff9;
      }

      .e {
        opacity: 0.85;
      }
    </style>
  </defs>
  <title>empty</title>
  <g>
    <g>
      <polygon class="a" points="18.83 30.33 18.83 116.33 82.83 133.33 82.83 49.33 18.83 30.33"/>
      <path class="b" d="M257.63,326v82.47a20.08,20.08,0,0,0,0,3.38V412a.38.38,0,0,0,.27.36l21.68,5.76,34.4,9.14,7.92,2.1a.38.38,0,0,0,.48-.36V345a.38.38,0,0,0-.28-.36l-21.75-6.46L266,328l-7.89-2.34a.37.37,0,0,0-.2.72l21.75,6.46L314,343l7.89,2.34-.27-.36v84l.47-.36-21.68-5.76L266,413.74l-7.92-2.1.28.36V329.53a21.19,21.19,0,0,0,0-3.38.75.75,0,0,1,0-.15A.38.38,0,0,0,257.63,326Z" transform="translate(-239.17 -295.67)"/>
    </g>
    <g>
      <polygon class="a" points="146.83 30.33 146.83 116.33 82.83 133.33 82.83 49.33 146.83 30.33"/>
      <path class="b" d="M385.63,326v84.67a3.59,3.59,0,0,0,0,1.18.75.75,0,0,1,0,.15l.27-.36-21.67,5.76-34.41,9.13-7.92,2.11.48.36V345l-.28.36,21.75-6.46,34.36-10.19,7.89-2.35a.37.37,0,0,0-.2-.72l-21.75,6.46-34.36,10.19-7.89,2.35a.38.38,0,0,0-.27.36v84a.37.37,0,0,0,.47.36l21.67-5.76,34.41-9.13,7.92-2.11a.38.38,0,0,0,.28-.36V329.53a21.19,21.19,0,0,0,0-3.38.75.75,0,0,1,0-.15A.38.38,0,0,0,385.63,326Z" transform="translate(-239.17 -295.67)"/>
    </g>
    <g>
      <polygon class="c" points="82.83 14.5 18.83 30.33 82.83 49.33 146.83 30.33 82.83 14.5"/>
      <path class="d" d="M321.9,309.81l-21.74,5.37-34.35,8.5-7.91,2a.37.37,0,0,0,0,.72l21.75,6.46,34.52,10.25,5.2,1.54a15.49,15.49,0,0,0,2.44.73,3.45,3.45,0,0,0,1.25-.26l3.94-1.17,32.94-9.78c8.58-2.55,17.19-5,25.74-7.64l.42-.13a.38.38,0,0,0,0-.72l-21.74-5.38L330,311.76l-7.91-1.95a.37.37,0,0,0-.2.72l21.74,5.38L378,324.4l7.91,2v-.72l-21.64,6.42-34.47,10.23c-2.55.76-5.16,1.78-7.77,2.31-.3.06.27.07,0,0s-.6-.18-.89-.26l-4-1.2-32.92-9.77-16.54-4.91-5.88-1.74a20.38,20.38,0,0,0-3.21-1,2,2,0,0,1-.42-.12v.72L279.84,321l34.35-8.49,7.91-2A.37.37,0,0,0,321.9,309.81Z" transform="translate(-239.17 -295.67)"/>
    </g>
    <g>
      <polygon class="c" points="18.83 30.33 0.38 47.16 62.18 63.84 82.83 49.33 18.83 30.33"/>
      <path class="d" d="M257.73,325.73l-16.16,14.75-2.29,2.08a.38.38,0,0,0,.17.63l11.38,3.07,24,6.47L296,358.46c1.64.44,3.28,1,4.94,1.33,1.08.24,2.33-1.18,3.16-1.76l17.65-12.41.43-.3a.38.38,0,0,0-.09-.68l-21.75-6.46L266,328l-7.89-2.34a.37.37,0,0,0-.2.72l21.75,6.46L314,343l7.89,2.34-.09-.68L306,355.82l-3.72,2.61a5,5,0,0,0-.91.64c-.19.25-.06,0,.08.07-1.26-.26-2.5-.68-3.74-1l-20.07-5.42-24.19-6.53-9-2.43-3-.81a6.34,6.34,0,0,0-1.56-.42.56.56,0,0,1-.21-.06l.16.63L256,328.35l2.29-2.08C258.62,325.94,258.09,325.41,257.73,325.73Z" transform="translate(-239.17 -295.67)"/>
    </g>
    <g>
      <polygon class="c" points="62.42 0.39 82.83 14.5 18.83 30.33 2.02 16.37 62.42 0.39"/>
      <path class="d" d="M301.4,296.38l17.85,12.34,2.56,1.77.09-.68-10.74,2.65-23.08,5.71-22.19,5.49-6.5,1.61c-.3.08-1.12.12-1.36.34s.08-.1.2.1a3.22,3.22,0,0,0-.69-.58l-15.62-13-.46-.38-.17.63L261.75,307l32.46-8.59,7.48-2a.37.37,0,0,0-.2-.72L281,301.11l-32.46,8.59-7.49,2a.37.37,0,0,0-.16.62l14.86,12.35c.81.68,1.64,1.87,2.76,1.6l5.06-1.25,21.06-5.21,24-5.93,8.85-2.19a31.56,31.56,0,0,0,4.41-1.09.65.65,0,0,1,.2-.05.38.38,0,0,0,.09-.69L304.34,297.5l-2.56-1.76C301.38,295.46,301,296.11,301.4,296.38Z" transform="translate(-239.17 -295.67)"/>
    </g>
    <g>
      <polygon class="c" points="100.49 1.56 82.83 14.5 146.83 30.33 163 17.78 100.49 1.56"/>
      <path class="d" d="M339.47,296.91l-15.41,11.28-2.25,1.65a.39.39,0,0,0,.09.69l10.55,2.61,22.9,5.66,22.14,5.48,6.67,1.65c.77.19,1.62.64,2.3.18,2.58-1.72,5-3.84,7.4-5.74l8.08-6.26.5-.4a.37.37,0,0,0-.16-.62l-21.15-5.49-33.68-8.73-7.69-2a.38.38,0,0,0-.2.73l21.15,5.48,33.68,8.74,7.69,2-.17-.63L387.1,324.67c-.35.28-.76.54-1.09.85s-.18,0,.06.11a4.68,4.68,0,0,0-1-.24L379.32,324l-21.11-5.22L334.86,313l-8.42-2.08-2.69-.67a5.47,5.47,0,0,0-1.46-.36.65.65,0,0,1-.19,0l.09.68,15.41-11.28,2.25-1.65C340.24,297.28,339.87,296.62,339.47,296.91Z" transform="translate(-239.17 -295.67)"/>
    </g>
    <g>
      <polygon class="c" points="163 45.04 146.83 30.33 82.83 49.33 101.43 63.84 163 45.04"/>
      <path class="d" d="M402.44,340.45,388,327.33a9.72,9.72,0,0,0-1.75-1.59c-.33-.16-.53-.05-.88.05l-5.15,1.53-21.09,6.26-23.89,7.09-8.79,2.61a33.85,33.85,0,0,0-4.37,1.3,1.52,1.52,0,0,1-.2.06.38.38,0,0,0-.17.63l15.33,12,2.9,2.26c.32.25.47.4.87.36a24.33,24.33,0,0,0,4.11-1.26l20-6.12,23.83-7.27,8.85-2.7c1.45-.45,3-.76,4.42-1.35l.21-.07a.37.37,0,0,0-.2-.72l-10.77,3.29-23,7L347,357.17l-5.67,1.73c-.12,0-1.09.28-.64.3s-.06-.14-.26-.3l-1.2-.93L322.7,345.08l-.43-.35-.17.63,10.68-3.17,23-6.83L378,328.78l6.57-1.95a4.71,4.71,0,0,0,1.41-.42c.25-.23,0,.27-.19-.13a3,3,0,0,0,.56.51l15.16,13.79.44.4C402.27,341.3,402.8,340.77,402.44,340.45Z" transform="translate(-239.17 -295.67)"/>
    </g>
    <circle class="c" cx="101.53" cy="93.19" r="4.73"/>
    <circle class="c" cx="133.6" cy="86.6" r="4.73"/>
    <path class="c" d="M352.55,406.63c.33-3.53,1.89-6.74,5-8.29a8,8,0,0,1,7.63.49,7.23,7.23,0,0,1,2.93,3.52,1.5,1.5,0,0,0,2.05.53,1.54,1.54,0,0,0,.54-2.05,10.58,10.58,0,0,0-8.58-6.14,10.8,10.8,0,0,0-9.94,4.35,14.83,14.83,0,0,0-2.6,7.59c-.18,1.92,2.82,1.91,3,0Z" transform="translate(-239.17 -295.67)"/>
  </g>
  <g class="e">
    <path class="a" d="M299.8,322.45l-8.19-2.39-1.19-.35a1.52,1.52,0,0,0-1.85,1,1.54,1.54,0,0,0,1.05,1.85l8.19,2.39,1.19.35a1.5,1.5,0,1,0,.8-2.89Z" transform="translate(-239.17 -295.67)"/>
  </g>
  <g class="e">
    <path class="a" d="M309.72,317.71l-9.48-13-1.34-1.85a1.54,1.54,0,0,0-2-.53,1.5,1.5,0,0,0-.54,2.05l9.47,13,1.35,1.85a1.54,1.54,0,0,0,2.05.53,1.5,1.5,0,0,0,.54-2.05Z" transform="translate(-239.17 -295.67)"/>
  </g>
  <g class="e">
    <path class="a" d="M321.61,314.48v-8.62a1.5,1.5,0,0,0-3,0v8.62a1.5,1.5,0,0,0,3,0Z" transform="translate(-239.17 -295.67)"/>
  </g>
  <g class="e">
    <path class="a" d="M331.84,318.67l6.75-5.48,1-.78a1.5,1.5,0,0,0,0-2.13,1.56,1.56,0,0,0-2.12,0l-6.76,5.48-1,.79a1.51,1.51,0,0,0,0,2.12,1.56,1.56,0,0,0,2.13,0Z" transform="translate(-239.17 -295.67)"/>
  </g>
  <g class="e">
    <path class="a" d="M338.1,326.39l13.53-4.23,1.95-.61c1.83-.58,1.05-3.48-.8-2.9l-13.54,4.24-1.94.61c-1.84.58-1.05,3.47.8,2.89Z" transform="translate(-239.17 -295.67)"/>
  </g>
</svg>
