<svg width="158" height="144" viewBox="0 0 158 144" fill="none" xmlns="http://www.w3.org/2000/svg">
<g clip-path="url(#clip0)">
<path d="M25.0513 82.114L0 53.6745L74.9535 0L149.907 53.6745L124.455 82.114H25.0513Z" fill="#CF366D"/>
<path d="M25.0513 82.114L0 53.6745L74.9535 0L149.907 53.6745L124.455 82.114H25.0513Z" fill="#2C163B"/>
<path d="M146.3 57.2795H0V121.168H146.3V57.2795Z" fill="#CF366D"/>
<path d="M146.3 57.2795H0V121.168H146.3V57.2795Z" fill="url(#paint0_linear)"/>
<path d="M149.907 144H0V53.6746L74.9535 98.9374L149.907 53.6746V144Z" fill="#CF366D"/>
<path d="M130.784 23.3961L114.886 11.2136L72.7718 66.1002L49.3817 48.1769L37.1909 64.0648L68.5281 88.0419L76.5642 94.0604L130.784 23.3961Z" fill="#3BEC1E"/>
<path d="M0.632154 33.4228L0.0361328 33.7136L0.104673 33.5919L0.0523661 33.6087L0.125716 33.5544L8.14755 19.2882L12.2481 22.7823L15.766 26.037L14.7559 26.5299L15.8914 28.5315L0.632154 33.4228Z" fill="url(#paint1_linear)"/>
<path d="M11.8416 23.1556L15.057 26.1349L0.483154 33.3756L8.23884 23.4418L11.8416 23.1556Z" fill="#CF366D"/>
<path opacity="0.2" d="M11.8416 23.1556L15.057 26.1349L0.483154 33.3756L8.23884 23.4418L11.8416 23.1556Z" fill="black"/>
<path d="M8.09114 19.9597L0.483154 33.3755L11.8416 23.1556L8.09114 19.9597Z" fill="#CF366D"/>
<path d="M15.1508 28.4415L0.498779 33.2782L12.7469 24.1414L15.1508 28.4415Z" fill="#CF366D"/>
<path d="M137.674 7.75675L134.464 13.3183L158 17.1482L142.841 6.59894L137.674 7.75675Z" fill="#CF366D"/>
<path opacity="0.2" d="M137.674 7.75675L134.464 13.3183L158 17.1482L142.841 6.59894L137.674 7.75675Z" fill="black"/>
<path d="M141.539 1.66089L158 17.1482L137.674 7.75675L141.539 1.66089Z" fill="#CF366D"/>
<path d="M135.332 16.5872L157.936 17.0188L136.834 9.52844L135.332 16.5872Z" fill="#CF366D"/>
</g>
<defs>
<linearGradient id="paint0_linear" x1="73.1498" y1="121.168" x2="73.1498" y2="57.2795" gradientUnits="userSpaceOnUse">
<stop stop-opacity="0.12"/>
<stop offset="0.55135" stop-opacity="0.09"/>
<stop offset="1" stop-opacity="0.02"/>
</linearGradient>
<linearGradient id="paint1_linear" x1="11.9282" y1="33.1781" x2="2.88261" y2="25.4605" gradientUnits="userSpaceOnUse">
<stop stop-color="#808080" stop-opacity="0.25"/>
<stop offset="0.53514" stop-color="#808080" stop-opacity="0.12"/>
<stop offset="1" stop-color="#808080" stop-opacity="0.1"/>
</linearGradient>
<clipPath id="clip0">
<rect width="158" height="144" fill="white"/>
</clipPath>
</defs>
</svg>
