<?xml version="1.0" standalone="no"?>
<!DOCTYPE svg PUBLIC "-//W3C//DTD SVG 20010904//EN"
 "http://www.w3.org/TR/2001/REC-SVG-20010904/DTD/svg10.dtd">
<svg version="1.0" xmlns="http://www.w3.org/2000/svg"
 width="147.000000pt" height="147.000000pt" viewBox="0 0 147.000000 147.000000"
 preserveAspectRatio="xMidYMid meet">
<metadata>
Created by potrace 1.11, written by Peter Selinger 2001-2013
</metadata>
<g transform="translate(0.000000,147.000000) scale(0.100000,-0.100000)"
fill="#000000" stroke="none">
<path d="M690 1385 c-19 -7 -39 -13 -45 -14 -5 -1 -28 -6 -50 -12 -22 -6 -47
-13 -55 -15 -21 -5 -278 -73 -320 -85 -19 -5 -42 -11 -51 -13 -9 -3 -33 -10
-55 -16 l-39 -12 2 -56 c1 -31 5 -192 7 -357 3 -165 6 -357 7 -427 l2 -127 34
-12 c19 -6 40 -12 46 -13 7 -2 19 -6 27 -9 8 -3 78 -24 155 -45 77 -22 196
-56 264 -77 68 -20 126 -34 128 -31 3 3 6 81 6 173 1 96 6 171 11 175 6 4 25
0 44 -7 18 -8 36 -14 40 -13 4 1 14 -2 22 -5 8 -3 49 -15 90 -27 41 -12 82
-24 90 -27 8 -4 23 -7 33 -8 9 -2 19 -4 22 -5 3 -1 8 -3 13 -5 4 -1 14 -4 22
-8 18 -7 128 -38 153 -42 9 -2 21 -6 26 -9 5 -3 24 -8 43 -11 l34 -6 -2 98
c-1 54 -4 275 -6 491 l-3 392 -30 9 c-90 27 -155 44 -300 81 -88 23 -167 43
-175 45 -145 40 -156 42 -190 30z"/>
</g>
</svg>
